<svg width="1200" height="400" viewBox="0 0 1200 400" xmlns="http://www.w3.org/2000/svg">
  <defs>
    <linearGradient id="bgGradient" x1="0%" y1="0%" x2="100%" y2="100%">
      <stop offset="0%" stop-color="#121212" />
      <stop offset="100%" stop-color="#1e1e1e" />
    </linearGradient>
    
    <filter id="glow" x="-20%" y="-20%" width="140%" height="140%">
      <feGaussianBlur stdDeviation="8" result="blur" />
      <feComposite in="SourceGraphic" in2="blur" operator="over" />
    </filter>
    
    <pattern id="circuitPattern" width="100" height="100" patternUnits="userSpaceOnUse">
      <path d="M 10 10 L 10 40 L 40 40 M 60 10 L 60 40 L 90 40 M 10 60 L 40 60 L 40 90 M 60 60 L 90 60 L 90 90" 
            fill="none" stroke="rgba(57, 255, 20, 0.15)" stroke-width="1" />
      <circle cx="10" cy="10" r="3" fill="rgba(57, 255, 20, 0.2)" />
      <circle cx="40" cy="40" r="3" fill="rgba(57, 255, 20, 0.2)" />
      <circle cx="60" cy="10" r="3" fill="rgba(57, 255, 20, 0.2)" />
      <circle cx="90" cy="40" r="3" fill="rgba(57, 255, 20, 0.2)" />
      <circle cx="10" cy="60" r="3" fill="rgba(57, 255, 20, 0.2)" />
      <circle cx="40" cy="90" r="3" fill="rgba(57, 255, 20, 0.2)" />
      <circle cx="60" cy="60" r="3" fill="rgba(57, 255, 20, 0.2)" />
      <circle cx="90" cy="90" r="3" fill="rgba(57, 255, 20, 0.2)" />
    </pattern>
  </defs>
  
  <!-- Background -->
  <rect width="100%" height="100%" fill="url(#bgGradient)" />
  
  <!-- Circuit pattern -->
  <rect width="100%" height="100%" fill="url(#circuitPattern)" />
  
  <!-- Decorative elements -->
  <g transform="translate(100, 200)">
    <path d="M 0 0 L 50 -30 L 100 0 L 150 -30 L 200 0 L 250 -30 L 300 0" 
          fill="none" stroke="rgba(57, 255, 20, 0.4)" stroke-width="2" />
    <circle cx="0" cy="0" r="4" fill="#39ff14" opacity="0.6" />
    <circle cx="50" cy="-30" r="4" fill="#39ff14" opacity="0.6" />
    <circle cx="100" cy="0" r="4" fill="#39ff14" opacity="0.6" />
    <circle cx="150" cy="-30" r="4" fill="#39ff14" opacity="0.6" />
    <circle cx="200" cy="0" r="4" fill="#39ff14" opacity="0.6" />
    <circle cx="250" cy="-30" r="4" fill="#39ff14" opacity="0.6" />
    <circle cx="300" cy="0" r="4" fill="#39ff14" opacity="0.6" />
  </g>
  
  <g transform="translate(800, 100)">
    <path d="M 0 0 L 30 50 L 0 100 L 30 150 L 0 200" 
          fill="none" stroke="rgba(57, 255, 20, 0.4)" stroke-width="2" />
    <circle cx="0" cy="0" r="4" fill="#39ff14" opacity="0.6" />
    <circle cx="30" cy="50" r="4" fill="#39ff14" opacity="0.6" />
    <circle cx="0" cy="100" r="4" fill="#39ff14" opacity="0.6" />
    <circle cx="30" cy="150" r="4" fill="#39ff14" opacity="0.6" />
    <circle cx="0" cy="200" r="4" fill="#39ff14" opacity="0.6" />
  </g>
  
  <!-- CPU/Chip icon -->
  <g transform="translate(600, 200)">
    <rect x="-40" y="-40" width="80" height="80" rx="5" fill="none" stroke="#39ff14" stroke-width="2" opacity="0.7" />
    <line x1="-20" y1="-40" x2="-20" y2="-60" stroke="#39ff14" stroke-width="2" opacity="0.7" />
    <line x1="0" y1="-40" x2="0" y2="-60" stroke="#39ff14" stroke-width="2" opacity="0.7" />
    <line x1="20" y1="-40" x2="20" y2="-60" stroke="#39ff14" stroke-width="2" opacity="0.7" />
    
    <line x1="-20" y1="40" x2="-20" y2="60" stroke="#39ff14" stroke-width="2" opacity="0.7" />
    <line x1="0" y1="40" x2="0" y2="60" stroke="#39ff14" stroke-width="2" opacity="0.7" />
    <line x1="20" y1="40" x2="20" y2="60" stroke="#39ff14" stroke-width="2" opacity="0.7" />
    
    <line x1="-40" y1="-20" x2="-60" y2="-20" stroke="#39ff14" stroke-width="2" opacity="0.7" />
    <line x1="-40" y1="0" x2="-60" y2="0" stroke="#39ff14" stroke-width="2" opacity="0.7" />
    <line x1="-40" y1="20" x2="-60" y2="20" stroke="#39ff14" stroke-width="2" opacity="0.7" />
    
    <line x1="40" y1="-20" x2="60" y2="-20" stroke="#39ff14" stroke-width="2" opacity="0.7" />
    <line x1="40" y1="0" x2="60" y2="0" stroke="#39ff14" stroke-width="2" opacity="0.7" />
    <line x1="40" y1="20" x2="60" y2="20" stroke="#39ff14" stroke-width="2" opacity="0.7" />
    
    <rect x="-20" y="-20" width="40" height="40" rx="3" fill="none" stroke="#39ff14" stroke-width="2" opacity="0.9" />
    <circle cx="0" cy="0" r="10" fill="none" stroke="#39ff14" stroke-width="2" opacity="0.9">
      <animate attributeName="opacity" values="0.9;0.4;0.9" dur="3s" repeatCount="indefinite" />
    </circle>
  </g>
  
  <!-- Glowing nodes -->
  <g opacity="0.8">
    <circle cx="200" cy="100" r="5" fill="#39ff14" filter="url(#glow)">
      <animate attributeName="r" values="5;8;5" dur="4s" repeatCount="indefinite" />
      <animate attributeName="opacity" values="0.8;0.3;0.8" dur="4s" repeatCount="indefinite" />
    </circle>
  </g>
  
  <g opacity="0.7">
    <circle cx="300" cy="300" r="4" fill="#39ff14" filter="url(#glow)">
      <animate attributeName="r" values="4;7;4" dur="3s" repeatCount="indefinite" />
      <animate attributeName="opacity" values="0.7;0.2;0.7" dur="3s" repeatCount="indefinite" />
    </circle>
  </g>
  
  <g opacity="0.6">
    <circle cx="900" cy="250" r="6" fill="#39ff14" filter="url(#glow)">
      <animate attributeName="r" values="6;9;6" dur="5s" repeatCount="indefinite" />
      <animate attributeName="opacity" values="0.6;0.2;0.6" dur="5s" repeatCount="indefinite" />
    </circle>
  </g>
  
  <!-- Binary code -->
  <text x="400" y="50" font-family="monospace" font-size="12" fill="rgba(57, 255, 20, 0.2)">01010011 01110000 01101111 01110011 01101001 01110100 01100101 01100011 01101000</text>
  <text x="400" y="70" font-family="monospace" font-size="12" fill="rgba(57, 255, 20, 0.2)">01010100 01100101 01100011 01101110 01101111 01101100 01101111 01100111 01101001 01100001</text>
  <text x="400" y="90" font-family="monospace" font-size="12" fill="rgba(57, 255, 20, 0.2)">01001001 01101110 01101111 01110110 01100001 01100011 01100001 01101111</text>
  
  <!-- Connection lines -->
  <line x1="200" y1="100" x2="300" y2="300" stroke="#39ff14" stroke-width="1" opacity="0.3" />
  <line x1="300" y1="300" x2="600" y2="200" stroke="#39ff14" stroke-width="1" opacity="0.3" />
  <line x1="600" y1="200" x2="900" y2="250" stroke="#39ff14" stroke-width="1" opacity="0.3" />
  <line x1="200" y1="100" x2="600" y2="200" stroke="#39ff14" stroke-width="1" opacity="0.3" />
</svg>
